<svg xmlns="http://www.w3.org/2000/svg" viewBox="0 0 32 32">
  <rect width="32" height="32" rx="4" fill="#1a1a1a"/>
  <g transform="translate(2,2) scale(0.0085,0.0085) translate(0,3300) scale(1,-1)" fill="#4ecdc4" stroke="none">
    <path d="M0 3270 l0 -30 1650 0 1650 0 0 30 0 30 -1650 0 -1650 0 0 -30z"/>
    <path d="M1606 3169 c-33 -38 -32 -44 4 -99 19 -29 27 -52 24 -66 -4 -14 0
-23 10 -27 9 -4 16 -3 16 1 0 4 7 16 15 26 13 17 18 18 40 6 33 -18 78 0 68
27 -10 28 -43 45 -43 23 0 -5 8 -10 17 -10 16 0 16 -1 1 -16 -14 -15 -20 -13
-72 20 -65 42 -75 59 -51 86 23 26 45 26 45 0 0 -11 -4 -20 -10 -20 -5 0 -10
-4 -10 -10 0 -5 8 -10 19 -10 13 0 20 10 25 32 5 27 2 36 -16 50 -33 25 -53
22 -82 -13z"/>
    <path d="M1320 3024 c-6 -14 -14 -34 -20 -44 -8 -14 -4 -25 16 -50 25 -29 27
-30 45 -14 21 19 24 51 8 74 -8 12 -10 12 -8 -5 3 -35 -1 -45 -15 -45 -8 0
-18 10 -21 21 -5 16 0 28 21 45 15 14 35 22 44 19 9 -3 49 -9 90 -14 62 -8 83
-16 131 -50 32 -23 62 -41 67 -41 5 0 15 -13 22 -29 13 -32 7 -50 -36 -108
-20 -27 -21 -32 -8 -37 18 -7 34 0 34 14 0 12 62 100 70 100 4 0 15 -10 26
-21 40 -45 124 -65 124 -29 0 16 -7 20 -34 20 -19 0 -47 10 -67 24 -19 14 -72
48 -118 77 -46 29 -98 64 -115 79 -28 25 -41 28 -139 33 l-108 7 -9 -26z"/>
    <path d="M1114 3006 c-16 -7 -46 -33 -66 -57 -36 -43 -37 -43 -57 -25 -29 26
-28 0 0 -30 30 -32 59 -161 52 -227 -5 -45 -12 -59 -52 -100 -25 -27 -58 -58
-74 -69 l-27 -20 -56 31 c-49 28 -57 30 -74 18 -19 -13 -17 -16 39 -51 86 -53
110 -55 155 -15 21 17 50 51 67 75 22 33 38 45 65 50 68 13 350 -59 440 -111
59 -34 68 -63 59 -190 l-7 -105 71 -66 c39 -37 71 -70 71 -73 0 -3 -13 -20
-28 -38 l-27 -32 -104 19 c-57 10 -105 21 -108 24 -10 10 7 36 29 45 13 5 50
21 82 35 55 24 58 28 44 43 -15 14 -22 13 -87 -12 -46 -17 -80 -38 -97 -58
-27 -32 -27 -33 -20 -148 8 -136 11 -130 -105 -178 -42 -18 -85 -41 -95 -52
-17 -19 -16 -21 26 -64 52 -53 80 -59 79 -17 0 15 -3 21 -6 15 -8 -21 -30 -15
-52 13 -12 15 -21 30 -21 35 0 8 88 52 130 64 14 4 32 13 40 20 23 20 138 75
155 75 8 0 15 -8 15 -17 0 -24 -29 -53 -48 -46 -10 4 -13 2 -8 -5 9 -16 41
-15 54 1 16 19 33 90 23 100 -4 4 -33 -2 -64 -14 -76 -29 -87 -23 -87 47 l0
57 56 -7 c79 -9 108 -27 138 -88 14 -28 26 -58 26 -65 0 -9 13 -7 44 9 40 19
43 23 35 45 -5 13 -9 44 -9 69 0 35 5 49 25 66 14 12 25 27 25 33 0 7 -27 45
-60 86 -80 98 -92 125 -84 192 11 97 -31 179 -114 221 -26 13 -83 34 -127 46
-44 12 -107 31 -141 40 -33 10 -81 21 -107 25 -40 6 -47 11 -52 36 -4 16 -4
33 0 38 3 6 -1 27 -10 47 -18 44 -20 149 -2 184 7 14 25 31 40 38 38 18 81 -2
85 -41 3 -23 0 -27 -21 -27 -30 0 -50 22 -40 45 4 13 3 16 -5 11 -36 -22 11
-82 68 -88 l35 -3 3 47 c3 45 2 48 -38 73 -56 35 -60 36 -96 21z"/>
    <path d="M1885 3013 c-51 -7 -86 -25 -96 -50 -10 -28 -2 -49 32 -78 l22 -20
-18 32 c-23 40 -8 63 41 63 45 0 54 -20 54 -124 0 -74 3 -88 24 -113 12 -15
29 -38 35 -51 19 -35 -6 -65 -76 -90 -32 -12 -72 -35 -88 -52 l-30 -31 23 -64
c32 -94 30 -106 -30 -160 -29 -26 -67 -55 -85 -63 l-32 -15 21 -30 22 -31 68
75 c97 105 102 118 81 213 -12 53 -13 80 -6 87 6 6 44 19 84 29 l74 19 18 -22
c75 -90 95 -102 153 -95 24 2 31 11 46 51 15 41 16 53 6 75 -15 30 -59 42 -84
21 -22 -18 -17 -30 11 -23 38 9 55 -10 44 -49 -15 -51 -31 -62 -67 -43 -40 20
-61 49 -95 127 -16 35 -40 87 -55 114 -22 42 -27 67 -30 153 -4 98 -3 102 16
102 24 0 62 -36 62 -58 0 -8 -8 -21 -17 -28 -17 -12 -16 -13 5 -14 12 0 24 6
26 13 2 6 8 28 15 47 11 33 10 37 -19 63 -31 27 -64 32 -155 20z"/>
    <path d="M1418 2963 c-21 -5 -32 -51 -17 -69 6 -8 23 -14 38 -14 l26 1 -27 15
c-31 16 -28 47 5 42 26 -4 60 -49 52 -69 -6 -17 -66 -49 -90 -49 -8 0 -29 -13
-47 -29 -18 -15 -45 -31 -60 -35 -16 -3 -38 -9 -51 -12 -55 -14 -100 34 -62
66 13 11 20 9 42 -11 l26 -24 -7 30 c-4 16 -8 30 -9 31 -1 1 -13 4 -27 7 -33
8 -80 -33 -80 -68 0 -51 67 -87 124 -67 43 16 90 1 168 -52 86 -59 102 -63
116 -31 13 28 17 25 -106 75 -43 18 -38 39 23 94 56 50 59 54 59 101 1 49 1
49 -39 60 -22 6 -47 10 -57 8z"/>
    <path d="M869 2943 c-14 -17 -20 -243 -6 -243 4 0 10 0 14 0 4 0 8 8 8 18 0
11 8 17 25 17 24 0 25 -2 30 -85 4 -67 8 -85 20 -85 12 0 16 18 18 87 l3 86
-41 23 c-26 15 -42 32 -46 49 -3 14 -9 41 -14 60 -7 27 -6 38 5 49 13 13 17
12 35 -4 24 -22 26 -35 4 -35 -8 0 -12 -4 -9 -10 8 -13 42 -13 51 1 11 18 -16
55 -51 72 -30 14 -35 14 -46 0z"/>
    <path d="M1576 2875 c-32 -91 -31 -126 4 -140 14 -5 52 -24 85 -40 49 -25 60
-35 60 -55 0 -18 -10 -30 -37 -45 l-37 -20 -29 22 -29 22 -13 -27 c-7 -17 -8
-28 -1 -30 5 -2 28 -16 50 -32 30 -22 42 -38 47 -67 17 -101 35 -158 54 -177
l20 -20 22 21 c20 20 20 24 6 40 -25 29 -57 97 -68 149 -11 47 -11 48 29 88
37 39 39 44 34 87 -4 39 -2 50 16 68 26 26 37 26 51 1 14 -27 5 -54 -23 -68
l-22 -11 22 0 c45 -2 69 71 35 102 -30 28 -60 21 -84 -18 -11 -20 -23 -34 -27
-33 -3 2 -32 16 -63 30 -42 19 -59 33 -64 52 -5 23 -2 103 7 150 2 10 -1 21
-7 23 -6 2 -23 -30 -38 -72z"/>
    <path d="M2113 2943 c-7 -2 -13 -20 -13 -39 0 -51 -36 -84 -94 -84 -39 0 -44
-2 -39 -20 3 -10 14 -22 24 -25 11 -4 47 -29 81 -56 67 -54 68 -54 133 -37
l45 12 0 51 0 52 -56 12 c-30 7 -57 11 -59 9 -2 -2 -6 -17 -10 -33 -6 -28 -6
-29 9 -11 14 17 19 18 41 6 26 -14 31 -35 16 -59 -8 -12 -16 -11 -54 7 -58 27
-70 58 -33 87 16 13 26 31 26 48 0 34 43 66 69 50 9 -5 18 -23 21 -39 l6 -29
8 30 c6 25 3 33 -19 52 -25 22 -71 29 -102 16z"/>
    <path d="M2284 2806 c-18 -14 -19 -16 -1 -65 16 -46 16 -53 2 -80 -8 -17 -15
-32 -15 -35 0 -3 18 -26 40 -51 47 -55 57 -84 41 -133 -19 -64 -25 -68 -60
-42 -22 15 -39 20 -57 16 -29 -8 -50 -47 -39 -73 7 -16 8 -15 14 6 8 29 32 46
53 39 8 -4 20 -26 27 -50 11 -38 10 -48 -7 -86 -17 -39 -18 -47 -6 -82 9 -26
11 -48 5 -62 -33 -87 -38 -162 -15 -237 17 -59 14 -78 -20 -110 l-24 -22 26
-40 c14 -21 29 -39 34 -39 4 0 8 -13 8 -29 0 -20 14 -44 45 -79 25 -27 45 -55
45 -61 0 -14 -29 -28 -85 -41 -26 -6 -82 -24 -126 -41 -63 -24 -81 -36 -94
-61 -8 -17 -15 -32 -15 -34 0 -1 41 13 91 32 51 19 97 34 105 34 7 0 45 16 85
35 80 38 149 46 183 20 25 -19 49 -19 86 0 40 21 52 78 22 106 -31 28 -76 25
-90 -6 -13 -29 -10 -31 22 -9 23 14 25 14 40 -7 18 -27 8 -44 -31 -52 -30 -6
-109 31 -139 65 -11 11 -43 36 -71 54 -58 37 -66 61 -33 94 24 24 43 25 60 5
10 -13 7 -17 -20 -29 -26 -11 -29 -14 -15 -20 42 -16 71 16 55 59 -8 21 -16
25 -52 25 -50 0 -64 -7 -71 -35 -3 -13 -5 -9 -6 12 -3 74 25 93 135 93 49 0
55 -3 83 -37 22 -27 31 -48 31 -74 0 -30 7 -43 35 -68 20 -17 37 -31 39 -31 2
0 17 5 34 11 61 21 59 110 -2 117 -30 4 -35 -14 -6 -23 24 -8 26 -37 4 -56
-14 -11 -20 -9 -43 17 -29 32 -30 51 -14 228 9 87 21 104 67 92 30 -7 42 -27
32 -52 -6 -15 -10 -14 -31 6 -20 19 -25 20 -25 7 0 -18 26 -47 43 -47 21 1 47
27 47 46 0 10 -13 34 -29 53 l-28 34 -37 -18 c-44 -21 -61 -44 -80 -110 -8
-26 -20 -51 -26 -55 -6 -4 -34 -3 -63 2 -29 5 -71 6 -95 3 -42 -6 -43 -6 -32
14 13 25 84 63 123 66 15 2 45 15 66 29 33 24 39 33 49 90 7 35 12 104 12 154
0 51 4 94 10 97 20 13 67 -6 79 -31 14 -32 14 -34 -4 -34 -8 0 -15 7 -15 15 0
8 -4 15 -10 15 -18 0 -11 -26 13 -48 27 -26 40 -27 56 -8 15 17 5 58 -19 84
-22 23 -183 77 -205 68 -33 -12 -10 -66 28 -66 16 0 17 2 7 15 -15 18 -7 30
15 22 12 -5 15 -25 15 -100 0 -113 -14 -193 -39 -227 -17 -24 -66 -49 -75 -39
-3 3 6 27 19 54 22 42 23 51 12 69 -21 31 -63 41 -92 22 -25 -17 -33 -50 -15
-61 6 -3 10 3 10 14 0 32 34 44 61 22 l24 -19 -37 -54 c-45 -65 -95 -114 -105
-104 -11 11 -7 115 6 162 6 21 11 69 11 106 0 37 5 70 10 73 6 3 10 24 10 45
0 44 47 150 66 150 7 0 24 -14 38 -30 l25 -30 46 32 c51 36 118 45 135 18 8
-13 10 -13 10 1 0 9 -7 20 -16 23 -29 11 -90 6 -110 -9 -34 -26 -35 -16 -5 44
22 43 27 61 18 70 -17 17 -31 14 -57 -14 -13 -14 -18 -25 -12 -25 7 0 12 4 12
9 0 11 39 26 46 18 8 -8 -45 -107 -57 -107 -25 0 -79 43 -85 66 -14 56 15 135
42 113 20 -17 68 -7 72 15 2 10 -2 22 -10 27 -20 13 -34 11 -20 -3 25 -25 4
-38 -28 -18 -12 8 -11 13 9 34 39 41 66 41 126 2 35 -24 57 -47 64 -67 14 -40
14 -52 1 -44 -5 3 -10 2 -10 -4 0 -15 14 -21 29 -12 9 6 11 19 6 42 -10 48
-30 76 -68 95 -54 27 -66 42 -58 71 9 34 31 42 32 11 l0 -23 12 24 c9 19 8 26
-8 37 -18 13 -24 9 -82 -53 l-62 -68 -1 42 c0 43 -19 73 -47 73 -8 0 -28 -14
-43 -30 l-29 -31 -16 25 c-19 29 -11 54 11 35 8 -7 14 -7 14 -1 0 22 -26 32
-46 18z m120 -58 c3 -7 6 -31 8 -53 4 -36 1 -43 -34 -74 -37 -33 -39 -33 -58
-16 -26 23 -25 39 2 78 47 70 74 91 82 65z"/>
    <path d="M622 2708 c-47 -23 -38 -94 17 -123 17 -8 34 -22 39 -30 7 -14 10
-13 25 3 16 17 15 20 -28 50 -49 34 -56 55 -26 72 23 12 56 -14 47 -37 -4 -9
-1 -13 6 -11 21 7 20 33 -2 61 -23 29 -41 32 -78 15z"/>
    <path d="M1580 2692 c0 -9 -18 -45 -41 -79 -41 -63 -43 -83 -10 -83 12 0 22
13 30 40 6 21 27 59 46 84 27 36 31 46 18 50 -27 11 -43 6 -43 -12z"/>
    <path d="M709 2542 c-30 -31 -72 -83 -94 -114 -22 -31 -46 -59 -53 -62 -22
-10 -53 32 -50 67 3 33 24 37 22 5 -1 -24 13 -23 21 1 16 51 -41 96 -65 52
-24 -45 -12 -87 46 -163 30 -40 62 -73 71 -73 24 0 40 31 27 52 -16 26 -33 28
-27 2 4 -16 2 -20 -8 -17 -27 9 -20 39 25 103 63 88 138 163 172 171 21 6 40
1 75 -19 45 -25 47 -25 52 -7 8 30 -49 60 -110 60 -48 0 -52 -2 -104 -58z"/>
    <path d="M1193 2503 c-12 -17 -19 -52 -21 -99 -4 -66 -2 -73 19 -88 13 -9 26
-16 29 -16 3 0 4 31 2 69 -4 65 -2 71 23 97 l28 28 34 -39 c62 -72 145 -204
138 -223 -3 -10 -21 -33 -40 -52 -31 -30 -37 -32 -60 -22 -14 6 -25 16 -25 21
0 5 -39 44 -87 86 -141 123 -177 158 -202 193 l-24 34 -21 -21 c-12 -13 -21
-34 -21 -53 0 -30 -7 -36 -100 -90 -106 -61 -131 -91 -137 -168 -5 -53 15 -44
43 19 23 52 34 64 81 90 31 17 63 40 73 51 28 31 79 44 123 30 42 -14 147
-118 190 -190 23 -38 27 -56 27 -121 -1 -93 -11 -111 -99 -169 -63 -41 -67
-42 -85 -26 -22 20 -89 143 -101 187 -8 26 -6 29 13 29 30 0 87 -36 87 -55 0
-8 5 -15 10 -15 21 0 9 33 -22 61 -26 25 -38 29 -72 27 -59 -4 -57 -26 9 -157
30 -61 53 -111 50 -111 -2 0 -28 14 -56 32 -42 25 -65 32 -125 36 -88 6 -124
-11 -124 -56 1 -25 1 -26 12 -7 17 31 28 35 98 35 76 0 112 -15 187 -78 58
-50 77 -52 98 -13 20 40 62 71 95 71 23 0 29 -6 39 -40 11 -38 13 -39 39 -28
15 7 30 15 35 18 4 3 -2 47 -14 97 l-21 90 22 43 c12 24 41 64 64 89 97 106
101 121 60 205 l-26 53 31 58 c24 45 28 60 19 67 -23 14 -37 9 -55 -19 -10
-16 -21 -31 -26 -34 -5 -4 -32 18 -61 47 -47 48 -57 54 -94 54 -34 0 -45 -5
-59 -27z"/>
    <path d="M1940 2491 c-31 -8 -50 -44 -50 -93 0 -60 15 -88 47 -88 l28 1 -27
15 c-21 11 -28 22 -28 45 0 66 47 92 91 48 29 -29 59 -97 59 -135 0 -27 -7
-37 -50 -64 -68 -43 -110 -94 -110 -130 0 -22 5 -30 18 -30 25 0 46 16 38 29
-13 21 24 68 82 104 86 53 111 56 155 18 55 -49 59 -119 8 -136 -27 -8 -72 12
-78 35 -7 26 -23 16 -23 -14 0 -50 70 -73 120 -40 58 39 63 73 26 158 -16 36
-34 60 -53 69 -15 8 -37 24 -47 36 -11 12 -27 21 -36 21 -22 0 -53 35 -83 96
-21 41 -48 70 -60 63 -1 -1 -13 -4 -27 -8z"/>
    <path d="M693 2398 c-15 -17 -25 -53 -37 -133 -13 -90 -20 -113 -39 -128 -53
-41 -97 -31 -80 19 12 36 31 42 42 12 l10 -23 0 25 c2 57 -47 67 -72 15 -39
-83 -17 -110 81 -100 59 6 75 4 124 -18 66 -29 158 -114 158 -145 0 -24 3 -26
44 -36 27 -7 28 -6 21 21 -13 55 -47 121 -73 146 -15 13 -64 37 -109 52 l-83
27 6 86 c8 117 20 159 45 167 13 5 27 1 36 -8 20 -20 9 -51 -15 -42 -16 6 -16
5 0 -11 17 -17 18 -17 38 1 27 24 25 41 -6 70 -33 31 -64 32 -91 3z"/>
    <path d="M1032 2284 c-27 -19 -29 -66 -6 -124 19 -47 31 -55 100 -65 58 -7 68
0 78 56 5 28 2 42 -13 60 l-20 24 -1 -31 c0 -18 -9 -42 -19 -55 l-20 -24 -38
20 c-44 23 -67 81 -43 110 12 14 16 13 43 -12 l29 -28 -17 35 c-27 53 -39 58
-73 34z"/>
    <path d="M879 2220 c-26 -15 -85 -113 -71 -118 6 -2 14 -4 17 -5 3 -1 18 20
33 48 15 27 35 51 45 53 41 8 67 -55 27 -65 -25 -7 -26 -23 -2 -23 44 0 55 50
21 94 -21 27 -43 32 -70 16z"/>
    <path d="M2017 2160 c-4 -8 -8 -32 -9 -53 -3 -38 -4 -39 -70 -61 -98 -32 -154
-108 -112 -150 23 -23 74 -21 74 3 0 11 -6 18 -16 17 -9 0 -21 7 -27 16 -25
38 77 98 143 83 57 -13 72 41 35 130 -9 22 -14 26 -18 15z"/>
    <path d="M680 2062 c0 -6 -20 -36 -44 -69 -41 -54 -48 -73 -26 -73 8 0 90 117
93 134 1 4 -4 11 -10 13 -7 3 -13 0 -13 -5z"/>
    <path d="M750 2006 c-5 -15 -33 -51 -60 -80 -47 -50 -54 -54 -123 -66 -39 -6
-85 -10 -102 -8 -28 3 -30 6 -30 43 0 36 3 40 25 40 20 0 25 -5 24 -23 -1 -25
14 -25 30 0 25 41 -73 69 -106 31 -29 -34 -30 -57 -6 -126 27 -80 22 -95 -43
-118 -24 -8 -57 -22 -72 -29 -24 -12 -30 -12 -37 0 -5 8 -11 12 -14 9 -3 -3 0
-14 8 -24 12 -16 18 -17 59 -7 70 18 85 15 123 -24 20 -19 47 -40 61 -45 22
-8 23 -12 12 -25 -11 -14 -25 -15 -79 -9 -36 5 -90 9 -120 9 l-55 1 -3 -36
c-3 -30 1 -37 23 -47 33 -15 32 -15 39 4 3 9 2 12 -5 9 -5 -4 -16 -1 -25 5
-11 10 -12 16 -3 26 15 18 43 18 59 -1 7 -8 21 -15 32 -15 18 0 19 -5 13 -54
-8 -61 5 -93 53 -139 34 -32 69 -33 64 -2 -2 11 -9 26 -17 33 -10 12 -12 9 -7
-13 7 -39 -18 -29 -40 16 -23 45 -22 77 2 116 21 35 45 51 105 68 38 12 40 14
39 51 -1 34 -4 39 -30 45 -53 11 -73 27 -79 67 -3 20 -8 49 -10 63 -7 43 13
58 85 65 98 9 162 55 233 165 16 23 16 28 2 39 -12 10 -16 8 -25 -14z"/>
    <path d="M2089 1996 c-23 -13 -26 -21 -25 -67 2 -67 26 -82 26 -16 0 53 29 89
58 71 20 -13 28 -62 13 -77 -18 -18 -13 -29 8 -18 23 13 36 81 18 98 -20 20
-70 24 -98 9z"/>
    <path d="M1930 1994 c0 -3 20 -31 44 -62 68 -88 79 -116 64 -157 -13 -38 -28
-44 -48 -20 -10 13 -8 19 14 36 14 11 26 28 26 36 0 13 -5 12 -24 -6 -20 -19
-32 -22 -63 -17 -111 17 -154 18 -185 6 -138 -55 -212 -106 -254 -177 -14 -24
-29 -43 -34 -43 -11 0 -41 42 -68 97 -21 41 -22 41 -54 30 -18 -6 -34 -12 -36
-13 -2 -1 22 -47 52 -102 61 -109 69 -142 35 -142 -32 0 -148 69 -209 125 -30
28 -84 72 -120 99 -95 72 -120 97 -120 122 0 14 -8 24 -22 28 -42 11 -47 8
-41 -27 8 -51 -7 -57 -109 -45 -76 10 -93 9 -133 -6 -54 -21 -57 -29 -59 -168
-1 -111 4 -102 -80 -138 -65 -27 -53 -35 20 -15 89 25 104 47 104 153 0 113
12 138 65 135 107 -4 202 -17 215 -28 8 -6 34 -23 58 -36 24 -13 45 -33 48
-45 12 -49 0 -68 -74 -117 -77 -51 -90 -52 -136 -16 -48 37 -26 149 28 149 20
0 46 -28 46 -49 0 -21 -23 -44 -33 -34 -4 3 -7 1 -7 -6 0 -23 44 -7 58 21 16
35 2 72 -37 93 -61 31 -81 19 -109 -66 -20 -62 -38 -71 -82 -39 l-30 21 0 -30
c0 -17 4 -31 10 -31 5 0 38 -26 74 -58 66 -60 128 -89 164 -78 11 4 53 36 92
71 101 91 121 90 280 -19 42 -28 85 -56 95 -62 11 -6 20 -20 20 -30 0 -16 -9
-19 -65 -22 l-65 -3 -61 -63 c-93 -95 -98 -106 -80 -151 18 -43 28 -39 60 23
13 26 40 65 58 86 l35 40 59 -18 c32 -10 69 -25 82 -32 26 -17 72 -86 72 -109
0 -26 -27 -28 -58 -5 l-29 21 -57 -28 c-61 -29 -76 -55 -56 -92 8 -16 20 -21
53 -21 l42 1 -32 14 c-39 17 -41 28 -8 60 34 35 68 31 126 -12 102 -77 109
-87 109 -145 0 -33 -6 -62 -16 -77 -14 -20 -22 -22 -57 -17 -23 4 -46 11 -52
15 -5 5 -37 16 -70 26 -117 33 -146 55 -209 154 -60 94 -96 183 -96 235 0 50
29 150 48 164 9 7 28 12 42 10 21 -3 25 -8 25 -35 0 -40 11 -42 27 -7 15 32 3
54 -36 67 -46 15 -73 -5 -109 -81 -23 -48 -32 -81 -31 -117 0 -57 49 -198 83
-240 28 -37 27 -53 -6 -66 -34 -13 -76 -3 -99 22 -29 33 -47 39 -169 59 -122
20 -159 37 -252 122 -44 39 -91 50 -110 26 -18 -23 -44 -117 -41 -145 4 -36
45 -44 73 -13 20 23 14 26 -15 8 -33 -21 -46 2 -30 51 7 21 16 44 20 51 12 20
53 4 106 -41 27 -22 59 -45 71 -49 l22 -9 -27 -31 c-20 -23 -35 -30 -63 -30
-37 0 -66 21 -54 40 3 5 1 10 -5 10 -20 0 -22 -29 -3 -54 25 -35 75 -44 109
-20 65 46 81 54 114 54 40 0 203 -54 208 -68 1 -5 -24 -34 -57 -63 -52 -47
-61 -60 -65 -96 -6 -53 17 -73 85 -73 52 0 74 17 64 50 -7 21 -39 28 -50 10
-3 -6 1 -10 10 -10 24 0 13 -24 -13 -28 -29 -4 -62 15 -62 36 0 9 30 45 67 79
l67 63 72 0 c49 0 74 -4 77 -12 2 -7 -9 -37 -26 -66 l-29 -53 26 -39 c29 -44
32 -60 14 -78 -16 -16 -63 -15 -77 2 -9 11 -8 18 5 30 20 21 11 34 -11 16 -10
-8 -15 -25 -13 -44 3 -27 8 -32 52 -44 56 -16 66 -10 85 47 10 31 9 38 -16 74
l-27 38 19 36 c11 20 29 42 41 50 30 19 75 6 206 -57 56 -28 110 -50 120 -50
25 0 35 -28 16 -46 -20 -21 -168 -31 -208 -14 -38 16 -58 48 -36 56 19 7 36
-3 36 -22 0 -8 5 -14 10 -14 13 0 13 16 0 41 -13 23 -68 26 -76 5 -6 -16 27
-86 49 -104 11 -9 26 -10 56 -3 40 9 41 8 49 -23 7 -25 15 -33 45 -40 38 -10
67 3 67 30 0 19 -10 18 -25 -2 -15 -21 -55 -10 -55 15 0 26 20 41 56 41 41 0
51 -13 63 -85 5 -33 14 -73 20 -88 18 -48 13 -74 -18 -97 -21 -14 -33 -34 -39
-63 -5 -23 -7 -45 -5 -49 2 -5 72 -8 155 -8 139 0 150 1 143 17 -5 10 -10 47
-13 83 -2 36 -10 73 -17 83 -10 14 -9 34 3 98 l14 81 -31 32 c-28 29 -31 38
-33 104 -1 63 1 76 20 95 29 29 54 14 67 -39 11 -46 19 -54 63 -54 26 0 44 11
86 50 36 34 73 57 111 71 66 23 78 18 73 -32 -2 -26 -8 -35 -25 -37 -18 -3
-23 2 -23 20 0 18 -2 20 -10 8 -13 -20 -12 -26 6 -44 21 -22 61 -20 74 3 15
28 12 106 -4 120 -7 6 -27 8 -45 5 -30 -6 -31 -6 -22 17 5 13 13 42 16 63 8
50 61 106 99 106 65 0 126 -59 126 -122 0 -65 -55 -62 -62 5 l-3 31 -15 -28
c-9 -18 -11 -32 -5 -42 15 -23 69 -54 81 -46 6 4 14 44 17 90 l6 83 -54 34
c-36 23 -66 35 -90 35 -29 0 -43 8 -75 43 -39 41 -53 87 -27 87 6 0 32 16 56
35 24 19 50 35 57 35 30 0 60 -56 52 -97 -5 -27 -42 -28 -56 -1 -11 23 -11 23
-11 -4 -1 -30 22 -48 62 -48 30 0 37 16 37 79 0 59 -15 80 -65 91 -36 8 -46 6
-96 -24 -37 -22 -76 -36 -115 -41 -32 -4 -74 -13 -93 -21 -18 -8 -58 -14 -87
-14 -48 0 -56 -3 -66 -25 -13 -28 -1 -49 32 -58 24 -6 26 2 3 18 -10 7 -14 19
-10 29 5 13 19 16 64 14 32 0 83 2 115 7 55 7 56 7 71 -22 9 -16 27 -35 42
-43 23 -13 26 -18 20 -50 -12 -65 -36 -75 -83 -35 -38 32 -45 31 -76 -6 -31
-36 -33 -69 -8 -92 23 -21 38 -21 46 -1 11 28 6 39 -9 20 -12 -16 -18 -17 -27
-8 -16 16 9 65 36 70 26 5 34 -7 41 -68 l6 -55 -50 -52 c-45 -49 -52 -53 -95
-53 -34 0 -46 4 -46 15 0 8 -11 22 -25 31 -14 9 -25 21 -25 27 0 6 -8 19 -17
29 -10 11 -13 22 -7 26 5 5 34 30 66 56 62 52 88 96 88 150 0 35 -1 36 -40 36
-37 0 -40 -2 -35 -23 12 -48 -106 -163 -134 -131 -4 5 -13 32 -20 60 -18 75
-6 143 39 217 23 37 43 88 50 124 21 104 88 192 128 167 16 -11 66 -72 88
-109 9 -16 11 -17 16 -3 4 9 -8 35 -28 63 -19 27 -34 58 -34 69 -1 73 -62 63
-145 -22 -22 -23 -43 -42 -46 -42 -10 0 -39 112 -39 148 0 42 -10 45 -52 17
l-36 -24 24 -90 c13 -49 26 -113 30 -143 5 -49 3 -59 -39 -138 -25 -47 -52
-109 -61 -139 -15 -50 -14 -58 6 -138 16 -65 18 -87 9 -96 -17 -17 -25 -1 -45
94 -13 59 -23 83 -39 94 -21 14 -23 22 -26 157 -1 78 -7 150 -12 159 -13 25
-11 59 6 111 18 51 95 122 186 170 82 44 189 35 276 -25 26 -17 33 -29 33 -56
0 -23 9 -44 30 -68 17 -18 30 -41 30 -51 0 -31 -48 -120 -74 -137 -32 -21 -76
-13 -76 14 0 27 11 33 32 14 18 -16 23 -8 12 21 -13 34 -74 3 -74 -37 0 -25
45 -50 75 -43 38 10 33 -28 -9 -70 -39 -39 -56 -42 -82 -13 -10 12 -32 30 -48
41 -41 30 -52 6 -19 -43 30 -45 83 -60 130 -36 15 8 39 17 53 21 38 10 68 57
86 133 8 37 20 89 26 114 10 43 9 50 -15 91 -30 52 -34 75 -24 144 8 47 6 56
-29 120 -47 88 -62 104 -91 104 -12 0 -23 -3 -23 -6z"/>
    <path d="M2177 1853 c-4 -3 -7 -15 -7 -27 0 -15 3 -17 12 -8 17 17 48 15 48
-3 0 -9 -16 -31 -35 -50 -28 -28 -42 -35 -75 -35 -28 0 -40 -4 -40 -14 0 -9
10 -14 28 -14 70 2 128 -30 120 -68 -5 -27 -35 -41 -58 -26 -26 16 -31 15 -24
-3 8 -20 83 -20 110 -1 19 15 19 15 -1 53 -11 21 -31 43 -43 49 l-24 12 36 40
c40 44 46 76 17 92 -22 11 -54 13 -64 3z"/>
    <path d="M2238 1579 c-10 -5 -18 -16 -18 -22 0 -7 -13 -28 -29 -47 -26 -31
-32 -34 -50 -22 -28 16 -28 16 -34 -14 -6 -32 31 -61 60 -46 37 20 81 78 91
120 10 44 8 48 -20 31z"/>
    <path d="M1595 1503 c-33 -50 -32 -82 5 -118 29 -28 30 -28 50 -10 20 18 28
55 11 55 -5 0 -11 -9 -14 -20 -13 -50 -53 -5 -45 51 5 35 25 34 64 -5 20 -20
38 -36 40 -36 2 0 4 11 4 25 0 22 -62 94 -82 95 -4 0 -19 -17 -33 -37z"/>
    <path d="M593 1400 c-63 -15 -84 -54 -51 -95 25 -32 81 -32 87 0 3 16 1 17
-12 6 -12 -9 -21 -10 -36 -1 -28 14 -26 34 5 59 28 22 33 21 109 -24 49 -29
175 -146 175 -162 0 -4 -17 -17 -37 -28 -39 -21 -49 -41 -39 -80 6 -23 50 -46
74 -38 6 3 12 17 12 31 l0 26 -16 -22 c-13 -18 -19 -21 -30 -11 -17 14 -18 41
-2 57 23 23 74 14 122 -23 48 -36 96 -55 96 -37 0 32 -21 62 -43 62 -28 0
-118 69 -137 105 -17 31 -9 47 33 70 30 16 38 17 51 6 9 -8 16 -24 16 -38 0
-20 -4 -23 -22 -18 -22 6 -22 6 -4 -9 27 -22 35 -20 42 9 10 38 -4 74 -32 87
-27 12 -33 10 -100 -32 -20 -12 -26 -10 -70 27 -89 73 -128 88 -191 73z"/>
    <path d="M0 15 c0 -13 190 -15 1650 -15 1460 0 1650 2 1650 15 0 13 -190 15
-1650 15 -1460 0 -1650 -2 -1650 -15z"/>
  </g>
</svg>